<svg width="1440" height="544" viewBox="0 0 1440 544" fill="none" xmlns="http://www.w3.org/2000/svg">
  <g clip-path="url(#clip0_212_16580)" filter="url(#filter0_f_212_16580)">
    <path opacity="0.15"
      d="M1374.19 219.88C1407.7 256.97 1434.88 321.451 1384.8 366.973C1379.63 371.666 1331.18 414.248 1258.3 408.96C1169.54 402.52 1151.34 332.812 1053.38 314.716C947.298 295.119 885.037 361.425 833.231 341.056C771.971 316.97 764.451 187.071 875.331 131.396C1008.91 64.3255 1284.08 120.151 1374.19 219.88Z"
      fill="#EBC136" />
    <path opacity="0.15"
      d="M539.245 411.639C570.307 392.569 604.155 354.148 583.134 315.285C580.966 311.278 560.262 274.654 511.679 265.834C452.505 255.09 423.162 298.52 355.092 293.996C281.375 289.096 257.688 234.301 218.971 239.114C173.189 244.806 135.627 330.21 193.513 386.149C263.248 453.538 455.723 462.917 539.245 411.639Z"
      fill="#EBC136" />
    <path opacity="0.15"
      d="M721.575 303.89C706.187 282.799 690.464 242.221 703.947 204.859C705.337 201.007 718.519 165.857 744.877 160.297C776.983 153.526 790.013 198.799 826.481 198.823C865.973 198.849 881.817 145.774 902.122 153.155C926.131 161.883 941.044 249.57 906.944 301.508C865.865 364.075 762.953 360.602 721.575 303.89Z"
      fill="#EBC136" />
    <path opacity="0.15"
      d="M709.467 256.802C726.285 246.124 744.622 224.633 733.277 202.936C732.107 200.699 720.931 180.254 694.654 175.363C662.649 169.407 646.745 193.693 609.923 191.218C570.047 188.538 557.27 157.943 536.322 160.661C511.55 163.876 491.171 211.62 522.448 242.828C560.128 280.423 664.247 285.514 709.467 256.802Z"
      fill="#EBC136" />
    <path opacity="0.15"
      d="M1433.62 230.365C1451.76 214.046 1471.7 181.494 1459.95 149.192C1458.74 145.861 1447.14 115.43 1419.17 108.595C1385.09 100.269 1367.7 136.965 1328.42 133.946C1285.89 130.678 1272.75 85.0665 1250.34 89.5345C1223.83 94.8178 1201.28 166.751 1234.15 212.934C1273.76 268.569 1384.86 274.244 1433.62 230.365Z"
      fill="#8047F8" />
    <path opacity="0.15"
      d="M1445.61 359.852C1459.71 370.804 1475.15 392.725 1465.84 414.622C1464.88 416.88 1455.7 437.511 1433.82 442.261C1407.16 448.047 1393.73 423.312 1363.03 425.533C1329.79 427.938 1319.35 458.841 1301.86 455.922C1281.17 452.471 1263.84 403.932 1289.71 372.552C1320.88 334.749 1407.69 330.404 1445.61 359.852Z"
      fill="#8047F8" />
    <path opacity="0.15"
      d="M246.937 118.892C259.507 140.616 271.932 182.056 259.695 219.492C258.433 223.351 246.5 258.558 224.055 263.502C196.717 269.524 186.675 223.405 155.792 222.442C122.347 221.4 107.765 274.665 90.7319 266.678C70.5904 257.234 59.883 168.175 89.8998 116.53C126.06 54.3152 213.139 60.4763 246.937 118.892Z"
      fill="#EBC136" />
    <path opacity="0.15"
      d="M888.507 414.947C862.621 395.727 837.462 357.18 863.926 318.528C866.654 314.543 892.434 278.123 939.6 269.62C997.048 259.262 1017.11 302.78 1081.84 298.683C1151.94 294.246 1183.66 239.712 1219.2 244.753C1261.23 250.713 1281.76 336.166 1217.71 391.631C1140.55 458.449 958.112 466.627 888.507 414.947Z"
      fill="#EBC136" />
    <path opacity="0.15"
      d="M814.922 381.538C836.564 362.513 859.249 325.904 841.967 292.187C840.185 288.71 823.248 256.989 787.43 251.962C743.805 245.84 724.654 286.687 674.868 286.695C620.953 286.704 600.92 238.808 572.979 245.46C539.939 253.327 516.942 332.444 561.931 379.321C616.129 435.792 756.728 432.695 814.922 381.538Z"
      fill="#8047F8" />
    <path opacity="0.15"
      d="M862.472 123.004C903.019 133.666 946.079 153.465 915.336 170.257C912.167 171.989 881.993 187.762 816.11 189.009C735.863 190.528 699.181 168.67 607.369 166.784C507.943 164.742 472.601 188.767 420.852 184.269C359.659 178.95 314.602 137.145 396 114.591C494.058 87.42 753.443 94.3353 862.472 123.004Z"
      fill="#8047F8" />
    <path opacity="0.15"
      d="M195.139 364.866C214.225 342.714 234.35 300.381 219.454 261.978C217.918 258.018 203.31 221.899 171.98 216.685C133.82 210.335 116.761 257.475 73.1632 258.25C25.9491 259.089 8.74424 204.467 -15.7709 212.526C-44.7595 222.056 -65.4579 313.145 -26.3915 366.214C20.6708 430.144 143.816 424.431 195.139 364.866Z"
      fill="#8047F8" />
  </g>
  <defs>
    <filter id="filter0_f_212_16580" x="-160" y="-178" width="1760" height="864" filterUnits="userSpaceOnUse"
      color-interpolation-filters="sRGB">
      <feFlood flood-opacity="0" result="BackgroundImageFix" />
      <feBlend mode="normal" in="SourceGraphic" in2="BackgroundImageFix" result="shape" />
      <feGaussianBlur stdDeviation="80" result="effect1_foregroundBlur_212_16580" />
    </filter>
    <clipPath id="clip0_212_16580">
      <rect width="1440" height="544" fill="white" transform="translate(0 -18)" />
    </clipPath>
  </defs>
</svg>